<svg xmlns="http://www.w3.org/2000/svg" version="1.0" width="528.000000pt" height="179.000000pt" viewBox="0 0 528.000000 179.000000" preserveAspectRatio="xMidYMid meet">

<g transform="translate(0.000000,179.000000) scale(0.100000,-0.100000)" fill="#000000" stroke="none">
<path d="M555 1773 c-109 -16 -197 -56 -268 -121 -111 -104 -167 -234 -192 -451 -18 -151 -75 -792 -75 -840 l0 -34 45 5 c44 5 71 20 159 88 34 26 47 30 100 30 67 -1 75 -4 161 -70 58 -44 60 -45 135 -45 82 0 85 2 194 85 34 26 47 30 101 30 49 0 69 -5 93 -23 17 -12 52 -37 78 -56 33 -24 62 -36 95 -39 l47 -4 -4 38 c-2 22 -13 152 -25 289 -31 379 -58 633 -74 700 -48 193 -175 342 -340 396 -55 18 -179 30 -230 22z m145 -34 c217 -34 369 -205 409 -460 23 -141 88 -905 78 -915 -12 -12 -65 14 -127 63 l-62 48 -83 0 -82 0 -59 -46 c-79 -61 -95 -69 -148 -69 -59 0 -89 12 -146 60 -59 49 -87 60 -156 60 -60 0 -97 -15 -159 -65 -48 -39 -78 -55 -101 -55 -19 0 -21 -33 27 490 35 389 44 463 69 543 56 181 203 318 370 346 76 12 96 12 170 0z"/>
<path d="M374 1226 c-28 -28 -34 -41 -34 -78 0 -50 18 -82 60 -103 46 -24 85 -19 124 16 85 74 40 199 -71 199 -38 0 -50 -5 -79 -34z"/>
<path d="M731 1246 c-33 -18 -50 -53 -51 -103 0 -33 6 -50 29 -75 26 -29 36 -33 79 -33 57 0 86 20 109 73 14 34 12 57 -10 100 -23 47 -104 67 -156 38z"/>
<path d="M510 829 c0 -12 15 -36 34 -55 39 -39 89 -45 137 -17 24 14 59 66 59 87 0 3 -52 6 -115 6 -110 0 -115 -1 -115 -21z"/>
<path d="M2415 1494 c-51 -55 -23 -136 49 -150 109 -20 178 75 107 147 -25 24 -37 29 -81 29 -42 0 -55 -4 -75 -26z"/>
<path d="M1720 1125 l0 -385 91 0 92 0 -8 130 -7 130 201 0 201 0 0 70 0 70 -200 0 -200 0 0 49 c0 26 3 76 7 111 l6 62 209 -7 208 -8 0 82 0 81 -300 0 -300 0 0 -385z"/>
<path d="M2700 1125 l0 -385 80 0 80 0 0 258 c0 141 3 314 7 385 l6 127 -86 0 -87 0 0 -385z"/>
<path d="M2985 1125 l0 -385 83 0 82 0 0 385 0 385 -82 0 -83 0 0 -385z"/>
<path d="M3270 1126 l0 -386 253 0 c197 0 265 3 304 15 92 27 142 113 128 219 -9 63 -51 108 -115 126 -76 21 -77 22 -35 34 61 19 92 43 115 90 27 57 26 129 -2 186 -18 35 -35 51 -73 70 -49 24 -56 25 -312 28 l-263 3 0 -385z m460 249 c32 -16 52 -68 42 -107 -18 -72 -56 -88 -219 -88 l-113 0 0 105 0 105 130 0 c97 0 139 -4 160 -15z m4 -329 c65 -27 72 -116 13 -160 -25 -19 -45 -21 -168 -24 l-139 -4 0 101 0 101 130 0 c88 0 141 -4 164 -14z"/>
<path d="M4825 1428 l0 -83 -52 -3 -53 -3 0 -70 0 -69 50 0 50 0 0 -143 c0 -173 14 -231 65 -276 47 -41 97 -54 196 -49 62 2 96 9 131 26 l48 24 -31 51 c-16 29 -33 58 -37 64 -6 10 -17 8 -47 -7 -68 -34 -133 -22 -160 30 -12 24 -15 57 -13 158 l3 127 128 -4 127 -3 0 71 0 71 -129 0 -129 0 6 85 5 85 -79 0 -79 0 0 -82z"/>
<path d="M4253 1350 c-155 -33 -242 -159 -231 -333 13 -191 128 -291 333 -290 113 0 175 23 241 87 61 60 84 121 84 226 0 195 -105 305 -300 315 -47 2 -104 0 -127 -5z m182 -140 c51 -25 76 -66 82 -141 14 -150 -76 -242 -209 -214 -100 22 -154 141 -118 264 27 96 145 139 245 91z"/>
<path d="M2410 990 l0 -250 80 0 80 0 0 189 c0 103 3 216 6 250 l7 61 -87 0 -86 0 0 -250z"/>
<path d="M2170 560 c0 -15 5 -20 18 -18 9 2 17 10 17 18 0 8 -8 16 -17 18 -13 2 -18 -3 -18 -18z"/>
<path d="M2420 560 c0 -15 5 -20 18 -18 9 2 17 10 17 18 0 8 -8 16 -17 18 -13 2 -18 -3 -18 -18z"/>
<path d="M2500 455 c0 -87 3 -105 15 -105 8 0 15 5 15 12 0 9 3 9 12 0 21 -21 85 -15 102 10 26 36 21 93 -10 117 -33 26 -45 26 -78 0 l-26 -20 0 45 c0 34 -4 46 -15 46 -12 0 -15 -18 -15 -105z m118 13 c7 -7 12 -26 12 -43 0 -38 -16 -55 -50 -55 -48 0 -65 44 -34 88 17 24 53 29 72 10z"/>
<path d="M2700 471 c0 -49 -3 -96 -6 -105 -4 -11 -1 -16 10 -16 14 0 16 15 16 105 0 63 -4 105 -10 105 -6 0 -10 -36 -10 -89z"/>
<path d="M3630 455 c0 -87 3 -105 15 -105 9 0 15 9 15 24 0 13 6 29 14 35 12 10 20 5 43 -23 15 -20 37 -36 47 -36 18 0 18 2 -5 28 -57 62 -57 61 -19 93 29 23 31 29 15 29 -10 0 -36 -17 -57 -37 l-38 -37 0 67 c0 53 -3 67 -15 67 -12 0 -15 -18 -15 -105z"/>
<path d="M1728 450 c-2 -84 -1 -100 12 -100 12 0 16 19 18 100 2 82 0 100 -12 100 -12 0 -15 -20 -18 -100z"/>
<path d="M1856 489 c-21 -17 -26 -18 -26 -5 0 9 -7 16 -15 16 -12 0 -15 -15 -15 -75 0 -60 3 -75 15 -75 11 0 15 11 15 43 0 47 22 87 49 87 29 0 41 -22 41 -77 0 -42 3 -53 16 -53 25 0 15 127 -11 146 -25 19 -38 18 -69 -7z"/>
<path d="M2273 500 c-15 -6 -23 -18 -23 -34 0 -29 10 -37 65 -51 50 -14 54 -39 7 -43 -21 -2 -41 3 -52 13 -18 16 -38 5 -25 -14 11 -19 71 -32 99 -21 58 22 44 69 -25 86 -26 6 -44 16 -44 25 0 18 52 24 71 8 10 -8 18 -9 25 -2 24 24 -57 51 -98 33z"/>
<path d="M2803 500 c-42 -17 -57 -85 -27 -128 12 -17 25 -22 58 -22 43 0 87 22 73 36 -4 5 -17 3 -27 -4 -38 -24 -90 -9 -90 25 0 9 17 13 60 13 56 0 60 2 60 23 0 30 -11 44 -43 56 -33 13 -35 13 -64 1z m75 -47 c3 -21 -1 -23 -42 -23 -46 0 -51 5 -40 35 5 12 17 15 43 13 29 -2 37 -8 39 -25z"/>
<path d="M3360 503 c-35 -14 -50 -37 -50 -78 0 -55 22 -75 83 -75 36 0 49 5 61 22 22 31 20 91 -2 111 -20 19 -69 29 -92 20z m68 -35 c7 -7 12 -26 12 -43 0 -38 -16 -55 -51 -55 -32 0 -51 21 -51 55 0 14 5 32 12 40 15 18 61 20 78 3z"/>
<path d="M3555 485 c-23 -22 -25 -23 -25 -5 0 11 -4 20 -10 20 -6 0 -10 -32 -10 -75 0 -60 3 -75 15 -75 11 0 15 12 15 49 0 51 17 81 46 81 8 0 14 7 14 15 0 22 -18 18 -45 -10z"/>
<path d="M3843 500 c-15 -6 -23 -18 -23 -33 0 -31 15 -43 63 -52 27 -5 37 -12 37 -26 0 -15 -7 -19 -34 -19 -18 0 -39 7 -46 15 -8 10 -17 12 -23 6 -14 -14 -1 -28 38 -41 27 -9 40 -8 62 2 53 25 39 72 -26 84 -36 7 -54 21 -45 36 8 12 59 9 72 -4 8 -8 15 -9 22 -2 25 25 -55 52 -97 34z"/>
<path d="M1986 478 c4 -13 17 -47 30 -75 29 -66 55 -71 77 -15 9 20 23 54 31 75 14 31 14 37 2 37 -7 0 -24 -26 -36 -57 -13 -32 -26 -61 -30 -66 -3 -4 -17 22 -29 58 -14 40 -29 65 -38 65 -10 0 -12 -6 -7 -22z"/>
<path d="M2170 425 c0 -60 3 -75 15 -75 12 0 15 15 15 75 0 60 -3 75 -15 75 -12 0 -15 -15 -15 -75z"/>
<path d="M2420 425 c0 -60 3 -75 15 -75 12 0 15 15 15 75 0 60 -3 75 -15 75 -12 0 -15 -15 -15 -75z"/>
<path d="M3020 493 c0 -4 12 -38 26 -75 34 -89 53 -91 84 -8 13 34 24 59 26 57 2 -2 12 -28 22 -58 29 -83 50 -79 84 16 21 57 24 75 13 75 -7 0 -21 -23 -30 -52 -10 -29 -21 -57 -25 -61 -4 -4 -17 20 -29 53 -28 77 -47 77 -74 -3 -10 -31 -23 -55 -27 -52 -5 3 -17 30 -26 60 -10 30 -24 55 -31 55 -7 0 -13 -3 -13 -7z"/>
<path d="M529 140 c-173 -17 -215 -65 -89 -101 69 -20 301 -18 372 4 68 20 79 34 49 58 -40 33 -200 52 -332 39z"/>
</g>
</svg>
