<svg width="318" height="85" viewBox="0 0 318 85" fill="none" xmlns="http://www.w3.org/2000/svg">
<g clip-path="url(#clip0_3_391)">
<path d="M102.394 64.6891H104.442C104.414 65.3872 104.397 66.2625 104.381 67.3152C104.364 68.3679 104.359 69.4649 104.353 70.6006C104.347 71.7364 104.342 72.8611 104.342 73.9747C104.342 75.0883 104.347 76.0468 104.364 76.8612H102.378C102.405 76.1354 102.422 75.2324 102.433 74.1465C102.444 73.0606 102.456 71.9414 102.461 70.7945C102.467 69.6477 102.461 68.523 102.45 67.4316C102.439 66.3401 102.417 65.426 102.389 64.6891H102.394Z" fill="black"/>
<path d="M116.044 76.8668C115.732 76.8557 115.415 76.8501 115.087 76.8501C114.758 76.8501 114.436 76.8557 114.113 76.8668C114.124 76.49 114.141 76.0523 114.152 75.5482C114.163 75.044 114.174 74.5398 114.18 74.0356C114.185 73.5315 114.191 73.055 114.202 72.6007C114.207 72.1464 114.213 71.7863 114.213 71.5148C114.213 70.5341 114.035 69.825 113.679 69.3984C113.323 68.9718 112.788 68.7557 112.071 68.7557C111.681 68.7557 111.303 68.8499 110.941 69.0383C110.579 69.2266 110.257 69.487 109.978 69.825C109.7 70.1629 109.478 70.5563 109.305 71.0162C109.138 71.476 109.049 71.9746 109.049 72.5176C109.049 73.0605 109.049 73.7254 109.038 74.4733C109.033 75.2213 109.038 76.0191 109.066 76.8557C108.754 76.8446 108.426 76.8391 108.081 76.8391C107.736 76.8391 107.408 76.8446 107.096 76.8557C107.124 76.4014 107.141 75.8086 107.152 75.0717C107.163 74.3348 107.174 73.537 107.18 72.6783C107.185 71.8195 107.18 70.9275 107.169 70.0023C107.157 69.077 107.135 68.2017 107.107 67.3762C107.174 67.3762 107.291 67.3761 107.458 67.3872C107.625 67.3928 107.814 67.3983 108.014 67.3983C108.215 67.3983 108.409 67.3983 108.587 67.3872C108.771 67.3817 108.899 67.3762 108.977 67.3762C108.977 67.6088 108.971 67.9634 108.955 68.4344C108.944 68.9053 108.944 69.4926 108.955 70.1906H109.049C109.361 69.1158 109.839 68.3457 110.49 67.8748C111.141 67.4039 111.848 67.1656 112.61 67.1656C113.818 67.1656 114.691 67.5202 115.231 68.2349C115.771 68.9441 116.038 69.9136 116.038 71.1436C116.038 71.8029 116.027 72.5785 116.01 73.4705C115.994 74.3625 115.994 75.4928 116.021 76.8612L116.044 76.8668Z" fill="black"/>
<path d="M126.015 67.3873H128.018C127.795 67.8637 127.506 68.5119 127.144 69.3264C126.783 70.1408 126.41 70.9996 126.026 71.9026C125.642 72.8057 125.275 73.7033 124.919 74.5897C124.563 75.4762 124.268 76.2352 124.034 76.8668C123.906 76.8557 123.722 76.8446 123.489 76.8391C123.255 76.8335 123.01 76.828 122.76 76.828C122.509 76.828 122.27 76.828 122.047 76.8391C121.825 76.8446 121.658 76.8557 121.541 76.8668C121.319 76.3128 121.029 75.598 120.668 74.7227C120.306 73.8473 119.927 72.9553 119.538 72.0356C119.148 71.1159 118.77 70.2405 118.397 69.3984C118.03 68.5563 117.73 67.8859 117.513 67.3817H119.594C119.722 67.7972 119.916 68.3347 120.167 68.9995C120.423 69.6643 120.69 70.3624 120.985 71.0937C121.274 71.8251 121.575 72.5619 121.881 73.3043C122.187 74.0467 122.454 74.7116 122.687 75.2933H122.938C123.183 74.7116 123.455 74.0578 123.756 73.3265C124.056 72.5952 124.351 71.8639 124.64 71.1325C124.935 70.4012 125.202 69.7031 125.447 69.0383C125.692 68.3734 125.881 67.8194 126.015 67.3817V67.3873Z" fill="black"/>
<path d="M131.991 64.0298C131.991 64.3899 131.88 64.6891 131.657 64.9218C131.434 65.1545 131.101 65.2708 130.644 65.2708C130.166 65.2708 129.815 65.1545 129.604 64.9218C129.387 64.6891 129.281 64.3899 129.281 64.0298C129.281 63.7195 129.392 63.437 129.62 63.1877C129.849 62.9383 130.188 62.8109 130.644 62.8109C131.101 62.8109 131.418 62.9383 131.646 63.1877C131.874 63.4425 131.985 63.7195 131.985 64.0298H131.991ZM129.598 67.3817C129.676 67.3817 129.81 67.3817 129.999 67.3928C130.188 67.3983 130.383 67.4039 130.594 67.4039C130.806 67.4039 131 67.4039 131.19 67.3928C131.379 67.3872 131.512 67.3817 131.59 67.3817C131.59 67.5645 131.579 68.0133 131.562 68.728C131.546 69.4482 131.529 70.2738 131.523 71.2212C131.518 72.163 131.512 73.1492 131.512 74.1686C131.512 75.188 131.518 76.0856 131.529 76.8612H129.604C129.643 76.2296 129.671 75.5038 129.682 74.6894C129.693 73.875 129.704 73.0384 129.704 72.1907C129.704 71.343 129.693 70.4898 129.676 69.6477C129.659 68.8056 129.632 68.0521 129.609 67.3817H129.598Z" fill="black"/>
<path d="M138.106 67.1324C139.236 67.1324 140.126 67.3208 140.771 67.703C141.422 68.0853 141.968 68.6449 142.407 69.3818C142.368 69.3928 142.274 69.4372 142.123 69.5092C141.973 69.5812 141.823 69.6588 141.667 69.753C141.511 69.8416 141.367 69.9247 141.228 69.9967C141.094 70.0688 141.011 70.1131 140.983 70.1242C140.738 69.6477 140.371 69.2765 139.892 69.0106C139.414 68.7446 138.785 68.6117 138.006 68.6117C137.227 68.6117 136.737 68.7391 136.42 68.9995C136.103 69.2599 135.947 69.5757 135.964 69.9469C135.975 70.4123 136.203 70.7392 136.637 70.9275C137.071 71.1159 137.705 71.2544 138.535 71.3431C139.887 71.4982 140.888 71.8084 141.55 72.2627C142.213 72.7226 142.546 73.3819 142.546 74.2517C142.546 75.1216 142.201 75.8695 141.517 76.3848C140.827 76.9 139.864 77.1604 138.618 77.1604C137.372 77.1604 136.264 76.9388 135.407 76.5011C134.55 76.0634 133.911 75.3543 133.482 74.3847C133.532 74.3736 133.632 74.3293 133.771 74.2573C133.916 74.1852 134.066 74.1077 134.228 74.0246C134.389 73.9415 134.545 73.8584 134.695 73.7808C134.845 73.7032 134.94 73.6534 134.979 73.6257C135.224 74.285 135.669 74.7947 136.303 75.1493C136.938 75.5039 137.722 75.6811 138.657 75.6811C139.464 75.6811 140.02 75.5482 140.343 75.2822C140.66 75.0163 140.821 74.695 140.821 74.3238C140.821 73.8861 140.621 73.5537 140.215 73.3265C139.814 73.0993 139.135 72.922 138.19 72.7946C136.876 72.6118 135.897 72.3071 135.252 71.8749C134.601 71.4428 134.278 70.7779 134.278 69.8859C134.278 69.1103 134.601 68.4565 135.252 67.9302C135.903 67.3983 136.854 67.1379 138.112 67.1379L138.106 67.1324Z" fill="black"/>
<path d="M147.315 64.0298C147.315 64.3899 147.204 64.6891 146.981 64.9218C146.759 65.1545 146.425 65.2708 145.968 65.2708C145.49 65.2708 145.139 65.1545 144.928 64.9218C144.711 64.6891 144.605 64.3899 144.605 64.0298C144.605 63.7195 144.716 63.437 144.945 63.1877C145.173 62.9383 145.512 62.8109 145.968 62.8109C146.425 62.8109 146.742 62.9383 146.97 63.1877C147.198 63.4425 147.309 63.7195 147.309 64.0298H147.315ZM144.922 67.3817C145 67.3817 145.134 67.3817 145.323 67.3928C145.512 67.3983 145.707 67.4039 145.918 67.4039C146.13 67.4039 146.325 67.4039 146.514 67.3928C146.703 67.3872 146.836 67.3817 146.914 67.3817C146.914 67.5645 146.903 68.0133 146.887 68.728C146.87 69.4482 146.853 70.2738 146.848 71.2212C146.842 72.163 146.836 73.1492 146.836 74.1686C146.836 75.188 146.842 76.0856 146.853 76.8612H144.928C144.967 76.2296 144.995 75.5038 145.006 74.6894C145.017 73.875 145.028 73.0384 145.028 72.1907C145.028 71.343 145.017 70.4898 145 69.6477C144.984 68.8056 144.956 68.0521 144.933 67.3817H144.922Z" fill="black"/>
<path d="M149.73 63.7805H151.694C151.694 63.9467 151.689 64.2293 151.677 64.6226C151.666 65.016 151.65 65.4869 151.638 66.0299C151.627 66.5728 151.616 67.1823 151.611 67.8637C151.605 68.5396 151.6 69.2488 151.6 69.9857H151.677C152 69.1325 152.479 68.4565 153.107 67.9468C153.736 67.4427 154.537 67.1933 155.511 67.1933C156.886 67.1933 157.898 67.631 158.538 68.5119C159.178 69.3929 159.501 70.5674 159.501 72.0411C159.501 73.7199 159.128 74.972 158.382 75.792C157.637 76.6119 156.607 77.0219 155.294 77.0219C154.426 77.0219 153.692 76.8723 153.096 76.5731C152.501 76.274 152.039 75.8695 151.716 75.3543L151.622 75.3931C151.633 75.6756 151.638 75.9582 151.638 76.2352V76.8668C151.277 76.8557 150.954 76.8502 150.676 76.8502C150.398 76.8502 150.075 76.8612 149.713 76.8889C149.802 74.1631 149.852 71.6976 149.858 69.5037C149.863 67.3041 149.824 65.3983 149.73 63.786V63.7805ZM151.616 72.9331C151.616 73.8528 151.906 74.5177 152.484 74.9277C153.063 75.3432 153.847 75.5482 154.849 75.5482C155.851 75.5482 156.591 75.2435 157.041 74.6396C157.487 74.0301 157.715 73.1714 157.715 72.0633C157.715 71.1602 157.514 70.3846 157.119 69.7474C156.724 69.1048 156.012 68.789 154.988 68.789C153.964 68.789 153.163 69.1657 152.545 69.9137C151.928 70.6616 151.622 71.6699 151.622 72.9387L151.616 72.9331Z" fill="black"/>
<path d="M161.493 63.7805H163.44C163.429 64.5284 163.413 65.4758 163.401 66.6116C163.39 67.7474 163.374 68.9275 163.362 70.1519C163.351 71.3708 163.34 72.5786 163.34 73.7697C163.34 74.9609 163.346 75.9914 163.362 76.8723H161.476C161.487 76.0967 161.504 75.1271 161.526 73.9526C161.543 72.7835 161.554 71.5813 161.554 70.3458C161.554 69.1103 161.554 67.908 161.543 66.728C161.537 65.5534 161.521 64.5672 161.493 63.7805Z" fill="black"/>
<path d="M174.808 74.7171C174.485 75.3875 173.957 75.9526 173.222 76.4069C172.488 76.8612 171.553 77.0828 170.407 77.0828C169.511 77.0828 168.738 76.9609 168.092 76.7227C167.441 76.4845 166.912 76.1465 166.495 75.7144C166.078 75.2822 165.772 74.7614 165.571 74.152C165.371 73.5426 165.271 72.8777 165.271 72.1575C165.271 71.4372 165.377 70.7668 165.583 70.1519C165.788 69.5369 166.1 69.0161 166.517 68.5784C166.935 68.1463 167.458 67.8083 168.092 67.559C168.726 67.3097 169.466 67.1878 170.312 67.1878C170.974 67.1878 171.586 67.2764 172.154 67.4482C172.722 67.6199 173.2 67.8859 173.606 68.2404C174.007 68.595 174.324 69.0493 174.552 69.5978C174.78 70.1463 174.892 70.789 174.892 71.5259C174.892 71.6699 174.881 71.8472 174.853 72.0577C174.825 72.2738 174.803 72.4788 174.775 72.6893C174.218 72.6783 173.595 72.6672 172.905 72.6616C172.215 72.6561 171.525 72.6506 170.824 72.645C170.123 72.6395 169.444 72.6395 168.788 72.645C168.131 72.6506 167.563 72.6616 167.085 72.6727C167.163 73.6423 167.48 74.3681 168.042 74.8445C168.598 75.321 169.4 75.5648 170.435 75.5648C171.331 75.5648 172.009 75.393 172.471 75.044C172.933 74.6949 173.261 74.3127 173.456 73.8971C173.601 74.0024 173.818 74.1409 174.118 74.3127C174.419 74.4844 174.652 74.6174 174.819 74.7116L174.808 74.7171ZM170.312 68.6283C169.366 68.6283 168.61 68.872 168.053 69.3541C167.497 69.8361 167.168 70.5674 167.079 71.5369H169.873C170.396 71.5369 170.935 71.537 171.486 71.5259C172.037 71.5148 172.571 71.5092 173.094 71.4982C173.106 70.6062 172.872 69.9025 172.382 69.3928C171.893 68.8831 171.203 68.6283 170.307 68.6283H170.312Z" fill="black"/>
<path d="M196.014 67.3872H197.939C197.716 67.9025 197.444 68.584 197.11 69.4261C196.782 70.2682 196.442 71.1381 196.097 72.0411C195.752 72.9442 195.418 73.8362 195.096 74.706C194.773 75.5759 194.506 76.3017 194.3 76.8668C194.194 76.8557 194.05 76.8446 193.86 76.8391C193.671 76.8335 193.476 76.828 193.276 76.828C193.076 76.828 192.881 76.828 192.692 76.8391C192.503 76.8446 192.358 76.8557 192.252 76.8668C192.046 76.285 191.768 75.5371 191.418 74.6174C191.067 73.6977 190.722 72.7946 190.388 71.9026C190.232 71.4649 190.082 71.0328 189.937 70.6117C189.793 70.1907 189.659 69.7918 189.531 69.4205H189.398C189.27 69.7973 189.131 70.1907 188.992 70.6117C188.847 71.0328 188.697 71.4539 188.546 71.8805C188.207 72.8112 187.873 73.7365 187.534 74.6506C187.194 75.5703 186.922 76.3072 186.716 76.8612C186.588 76.8502 186.426 76.8391 186.232 76.8335C186.037 76.828 185.837 76.8225 185.631 76.8225C185.425 76.8225 185.219 76.8224 185.019 76.8335C184.818 76.8391 184.646 76.8502 184.501 76.8612C184.295 76.2906 184.017 75.5537 183.672 74.6506C183.327 73.7476 182.977 72.8334 182.609 71.9082C182.248 70.9829 181.897 70.1076 181.569 69.282C181.24 68.4565 180.979 67.8305 180.801 67.4039H182.826C182.893 67.6366 182.988 67.9357 183.11 68.2959C183.233 68.656 183.372 69.0604 183.527 69.5092C183.683 69.958 183.85 70.4289 184.023 70.9331C184.195 71.4372 184.379 71.9359 184.557 72.4234C184.752 72.9276 184.935 73.4151 185.102 73.875C185.269 74.3404 185.419 74.7725 185.547 75.177H185.82C185.948 74.7891 186.104 74.3681 186.287 73.9082C186.471 73.4484 186.643 72.983 186.81 72.501C186.994 72.0079 187.178 71.5148 187.367 71.0162C187.556 70.5175 187.728 70.0411 187.89 69.5923C188.051 69.138 188.196 68.7225 188.318 68.3402C188.441 67.9579 188.541 67.6366 188.619 67.3817C188.658 67.3817 188.758 67.3817 188.919 67.3928C189.081 67.3983 189.264 67.4039 189.465 67.4039C189.665 67.4039 189.854 67.4039 190.032 67.3928C190.205 67.3872 190.321 67.3817 190.372 67.3817C190.538 67.9247 190.789 68.6338 191.112 69.5147C191.434 70.3956 191.779 71.3153 192.141 72.2849C192.336 72.7891 192.525 73.2877 192.709 73.7863C192.892 74.285 193.048 74.7448 193.176 75.1714H193.449C193.593 74.7448 193.749 74.285 193.916 73.7863C194.083 73.2877 194.261 72.7835 194.439 72.2627C194.751 71.3707 195.051 70.4954 195.335 69.6422C195.619 68.7889 195.847 68.0355 196.019 67.3762L196.014 67.3872Z" fill="black"/>
<path d="M208.945 72.1575C208.945 72.8833 208.839 73.5481 208.634 74.152C208.428 74.7614 208.111 75.2822 207.688 75.7144C207.265 76.1465 206.731 76.4845 206.091 76.7227C205.451 76.961 204.7 77.0829 203.843 77.0829C202.986 77.0829 202.235 76.961 201.584 76.7227C200.933 76.4845 200.398 76.1465 199.976 75.7144C199.553 75.2822 199.241 74.7614 199.03 74.152C198.824 73.5426 198.718 72.8777 198.718 72.1575C198.718 71.4372 198.824 70.7447 199.03 70.1297C199.235 69.5147 199.553 68.9939 199.976 68.5618C200.398 68.1297 200.933 67.7917 201.584 67.5424C202.235 67.2986 202.986 67.1712 203.843 67.1712C204.7 67.1712 205.451 67.2931 206.091 67.5424C206.736 67.7862 207.265 68.1297 207.688 68.5618C208.111 68.9939 208.422 69.5203 208.634 70.1297C208.839 70.7447 208.945 71.4206 208.945 72.1575ZM207.098 72.1409C207.098 71.0051 206.809 70.1408 206.23 69.5646C205.651 68.9829 204.855 68.6892 203.843 68.6892C202.83 68.6892 202.034 68.9829 201.456 69.5646C200.877 70.1463 200.588 71.0051 200.588 72.1409C200.588 73.2766 200.877 74.1188 201.456 74.7005C202.034 75.2822 202.83 75.5703 203.843 75.5703C204.855 75.5703 205.651 75.2767 206.23 74.7005C206.809 74.1188 207.098 73.2656 207.098 72.1409Z" fill="black"/>
<path d="M216.891 67.2875L216.563 69.2266C216.407 69.1768 216.229 69.1325 216.04 69.0992C215.845 69.066 215.65 69.0494 215.455 69.0494C214.804 69.0494 214.22 69.3762 213.703 70.0411C213.185 70.7004 212.924 71.5702 212.924 72.6561C212.924 73.1991 212.924 73.8307 212.913 74.5565C212.907 75.2822 212.913 76.0468 212.94 76.8612C212.618 76.8502 212.284 76.8446 211.939 76.8446C211.594 76.8446 211.271 76.8502 210.976 76.8612C210.987 76.4069 211.004 75.8141 211.026 75.0772C211.043 74.3404 211.054 73.5426 211.054 72.6838C211.054 71.8251 211.049 70.9331 211.037 70.0078C211.026 69.0826 211.004 68.2072 210.976 67.3817C211.043 67.3817 211.154 67.3817 211.316 67.3928C211.477 67.3983 211.655 67.4039 211.85 67.4039C212.045 67.4039 212.228 67.4039 212.406 67.3928C212.579 67.3872 212.707 67.3817 212.785 67.3817C212.796 67.6255 212.79 68.0299 212.768 68.595C212.74 69.1602 212.729 69.8305 212.729 70.6228H212.824C213.068 69.4206 213.436 68.5452 213.914 67.9967C214.393 67.4482 215.044 67.1712 215.862 67.1712C216.056 67.1712 216.24 67.1823 216.407 67.1989C216.574 67.221 216.741 67.2487 216.891 67.2875Z" fill="black"/>
<path d="M218.271 63.7805H220.218C220.207 64.2569 220.196 64.8165 220.191 65.4481C220.185 66.0797 220.179 66.7556 220.174 67.4648C220.168 68.174 220.163 68.9164 220.152 69.692C220.146 70.4677 220.141 71.2378 220.141 71.9968C220.58 71.6201 221.048 71.2156 221.532 70.7724C222.016 70.3347 222.483 69.9026 222.934 69.4815C223.379 69.0604 223.785 68.6671 224.152 68.3014C224.514 67.9357 224.798 67.6255 224.987 67.3817C225.132 67.3817 225.315 67.3817 225.543 67.3928C225.772 67.3983 226.005 67.4039 226.245 67.4039C226.484 67.4039 226.718 67.4039 226.935 67.3928C227.157 67.3872 227.335 67.3817 227.48 67.3817V67.5368C226.846 68.0687 226.222 68.6061 225.61 69.1546C224.998 69.7031 224.191 70.4123 223.179 71.2766C223.557 71.7309 223.974 72.2295 224.436 72.778C224.898 73.3265 225.343 73.8584 225.772 74.3681C226.2 74.8778 226.595 75.3432 226.951 75.7642C227.307 76.1853 227.586 76.49 227.78 76.6839V76.8557C227.652 76.8557 227.485 76.8557 227.285 76.8446C227.085 76.8335 226.873 76.8335 226.651 76.8335C226.428 76.8335 226.217 76.8335 226.005 76.8446C225.799 76.8502 225.638 76.8557 225.521 76.8557C225.393 76.6729 225.193 76.4125 224.915 76.069C224.642 75.7255 224.336 75.3487 224.002 74.9332C223.663 74.5177 223.318 74.0855 222.962 73.6257C222.606 73.1658 222.272 72.7281 221.96 72.3182C221.687 72.5508 221.398 72.7946 221.092 73.055C220.786 73.3154 220.463 73.5869 220.129 73.8695C220.129 74.4235 220.129 74.9554 220.141 75.4595C220.146 75.9637 220.152 76.4291 220.152 76.8557H218.265C218.277 76.08 218.293 75.1105 218.315 73.9359C218.332 72.7669 218.343 71.5647 218.343 70.3292C218.343 69.0937 218.343 67.8914 218.332 66.7113C218.327 65.5368 218.31 64.5506 218.282 63.7639L218.271 63.7805Z" fill="black"/>
<path d="M233.656 67.1324C234.786 67.1324 235.676 67.3208 236.322 67.703C236.973 68.0853 237.518 68.6449 237.957 69.3818C237.919 69.3928 237.824 69.4372 237.674 69.5092C237.523 69.5812 237.373 69.6588 237.217 69.753C237.062 69.8416 236.917 69.9247 236.778 69.9967C236.644 70.0688 236.561 70.1131 236.533 70.1242C236.288 69.6477 235.921 69.2765 235.442 69.0106C234.964 68.7446 234.335 68.6117 233.556 68.6117C232.777 68.6117 232.287 68.7391 231.97 68.9995C231.653 69.2599 231.497 69.5757 231.514 69.9469C231.525 70.4123 231.753 70.7392 232.187 70.9275C232.621 71.1159 233.256 71.2544 234.085 71.3431C235.437 71.4982 236.438 71.8084 237.101 72.2627C237.763 72.7226 238.097 73.3819 238.097 74.2517C238.097 75.1216 237.752 75.8695 237.067 76.3848C236.377 76.9 235.415 77.1604 234.168 77.1604C232.922 77.1604 231.815 76.9388 230.958 76.5011C230.101 76.0634 229.461 75.3543 229.032 74.3847C229.082 74.3736 229.183 74.3293 229.322 74.2573C229.466 74.1852 229.617 74.1077 229.778 74.0246C229.939 73.9415 230.095 73.8584 230.245 73.7808C230.396 73.7032 230.49 73.6534 230.529 73.6257C230.774 74.285 231.219 74.7947 231.853 75.1493C232.488 75.5039 233.272 75.6811 234.207 75.6811C235.014 75.6811 235.57 75.5482 235.893 75.2822C236.21 75.0163 236.372 74.695 236.372 74.3238C236.372 73.8861 236.171 73.5537 235.765 73.3265C235.365 73.0993 234.686 72.922 233.74 72.7946C232.427 72.6118 231.447 72.3071 230.802 71.8749C230.151 71.4428 229.828 70.7779 229.828 69.8859C229.828 69.1103 230.151 68.4565 230.802 67.9302C231.453 67.3983 232.404 67.1379 233.662 67.1379L233.656 67.1324Z" fill="black"/>
<path d="M138.607 8.05565V17.8898C136.309 17.79 133.966 17.7014 131.574 17.6294C129.181 17.5573 126.872 17.4909 124.652 17.441C122.431 17.3911 120.323 17.3524 118.325 17.3302C116.327 17.308 114.58 17.2914 113.083 17.2914C113.033 18.9812 112.994 20.9425 112.972 23.1808C112.944 25.4191 112.933 27.8014 112.933 30.3334C114.73 30.3832 116.889 30.4054 119.41 30.4054H126.783C129.175 30.4054 131.312 30.3832 133.182 30.3334C135.051 30.2835 136.286 30.2337 136.887 30.1838C136.837 31.724 136.815 33.2144 136.815 34.6549C136.815 36.0953 136.837 37.5358 136.887 38.9763C136.286 38.9265 135.029 38.8877 133.109 38.8655C131.19 38.8434 129.031 38.8267 126.632 38.8267C124.234 38.8267 121.791 38.8378 119.299 38.8655C116.806 38.8932 114.686 38.9043 112.939 38.9043C112.939 41.6856 112.961 44.4447 113.011 47.176C113.061 49.9074 113.133 52.4615 113.234 54.8439C112.638 54.8439 109.077 54.7774 107.619 54.7774C106.161 54.7774 102.533 54.8383 102.005 54.8439C102.155 51.7136 102.266 48.2287 102.344 44.3782C102.417 40.5276 102.456 36.5552 102.456 32.4553C102.456 28.3555 102.428 24.2113 102.383 20.0117C102.333 15.8121 102.111 11.8286 102.01 8.05011C103.908 8.05011 106.651 8.06119 109.945 8.08889C113.239 8.11659 116.667 8.13876 120.233 8.16092C123.8 8.18862 127.256 8.18862 130.6 8.16092C133.944 8.13876 136.609 8.09997 138.607 8.05011V8.05565Z" fill="black"/>
<path d="M195.958 54.7774C196.008 51.4975 196.058 47.8575 196.108 43.8574C196.158 39.8572 196.181 35.7851 196.181 31.6354C196.181 27.4856 196.17 23.3747 196.142 19.3026C196.114 15.2304 196.053 11.4796 195.953 8.05011C200.293 8.09998 204.711 8.09998 209.201 8.05011C213.692 8.00025 218.06 7.97809 222.3 7.97809C226.94 7.97809 230.557 8.91995 233.15 10.8092C235.743 12.6985 237.039 15.7789 237.039 20.0505C237.039 23.0312 236.166 25.541 234.419 27.5798C232.671 29.6187 230.028 30.832 226.484 31.2309V31.7517C229.828 32.1008 232.593 33.0537 234.791 34.6216C236.984 36.184 238.085 38.9542 238.085 42.9321C238.085 46.4613 236.911 49.3312 234.569 51.5418C232.221 53.7524 228.209 54.8605 222.517 54.8605C220.218 54.8605 217.865 54.8494 215.444 54.8217C213.024 54.7996 210.653 54.7719 208.333 54.7497C206.013 54.7275 203.793 54.7109 201.673 54.7109C199.553 54.7109 197.644 54.7386 195.947 54.7829L195.958 54.7774ZM219.239 27.8735C225.966 27.8735 226.868 23.8733 226.868 21.3802C226.868 18.7153 226.061 15.2747 218.894 15.2747H206.514C206.464 16.9147 206.425 18.8261 206.402 21.0145C206.374 23.203 206.363 25.4856 206.363 27.8679H219.239V27.8735ZM219.011 47.3256C227.291 47.3256 227.541 43.1759 227.541 41.1426C227.541 39.1093 227.257 35.1092 218.933 35.1092H206.358C206.358 37.2976 206.369 39.4417 206.397 41.5526C206.419 43.6635 206.458 45.5915 206.508 47.3256H219.005H219.011Z" fill="black"/>
<path d="M282.567 36.4444C282.567 39.2755 282.155 41.885 281.331 44.2674C280.508 46.6497 279.261 48.6886 277.586 50.3784C275.917 52.0682 273.808 53.3868 271.26 54.3286C268.717 55.2705 265.746 55.747 262.351 55.747C258.957 55.747 255.991 55.276 253.443 54.3286C250.9 53.3868 248.791 52.0682 247.116 50.3784C245.447 48.6886 244.195 46.6497 243.372 44.2674C242.548 41.885 242.136 39.2755 242.136 36.4444C242.136 33.6133 242.548 30.9927 243.372 28.5827C244.195 26.1726 245.441 24.1227 247.116 22.4329C248.786 20.7431 250.895 19.43 253.443 18.4826C255.986 17.5407 258.957 17.0643 262.351 17.0643C265.746 17.0643 268.711 17.5352 271.26 18.4826C273.803 19.4245 275.912 20.7431 277.586 22.4329C279.256 24.1227 280.508 26.1726 281.331 28.5827C282.155 30.9927 282.567 33.6133 282.567 36.4444ZM272.762 36.4444C272.762 32.6216 271.839 29.735 269.991 27.8015C268.144 25.8623 265.601 24.8928 262.357 24.8928C259.113 24.8928 256.57 25.8623 254.723 27.8015C252.875 29.7406 251.952 32.6216 251.952 36.4444C251.952 40.2672 252.875 43.0762 254.723 45.0153C256.57 46.9544 259.113 47.924 262.357 47.924C265.601 47.924 268.144 46.9544 269.991 45.0153C271.839 43.0762 272.762 40.2229 272.762 36.4444Z" fill="black"/>
<path d="M149.229 18.5214C152.803 18.5214 155.7 16.0359 155.7 12.9699C155.7 9.90398 152.803 7.41852 149.229 7.41852C145.655 7.41852 142.758 9.90398 142.758 12.9699C142.758 16.0359 145.655 18.5214 149.229 18.5214Z" fill="black"/>
<path d="M171.642 8.05566C170.329 8.05566 167.758 8.12769 166.517 8.12769C165.277 8.12769 162.706 8.05566 161.393 8.05566C161.393 10.7483 161.615 19.7569 161.615 31.4525C161.615 43.1482 161.393 52.1624 161.393 54.8494C162.706 54.8494 165.277 54.7774 166.517 54.7774C167.758 54.7774 170.329 54.8494 171.642 54.8494C171.642 52.1568 171.42 43.1482 171.42 31.4525C171.42 19.7569 171.642 10.7427 171.642 8.05566Z" fill="black"/>
<path d="M154.354 23.5686C153.041 23.5686 150.47 23.6407 149.229 23.6407C147.988 23.6407 145.418 23.5686 144.104 23.5686C144.104 26.2612 144.327 27.5134 144.327 39.209C144.327 50.9047 144.104 52.1624 144.104 54.8494C145.418 54.8494 147.988 54.7774 149.229 54.7774C150.47 54.7774 153.041 54.8494 154.354 54.8494C154.354 52.1568 154.131 50.9047 154.131 39.209C154.131 27.5134 154.354 26.2557 154.354 23.5686Z" fill="black"/>
<path d="M188.93 8.05566C187.617 8.05566 185.046 8.12769 183.806 8.12769C182.565 8.12769 179.994 8.05566 178.681 8.05566C178.681 10.7483 178.903 19.7569 178.903 31.4525C178.903 43.1482 178.681 52.1624 178.681 54.8494C179.994 54.8494 182.565 54.7774 183.806 54.7774C185.046 54.7774 187.617 54.8494 188.93 54.8494C188.93 52.1568 188.708 43.1482 188.708 31.4525C188.708 19.7569 188.93 10.7427 188.93 8.05566Z" fill="black"/>
<path d="M315.446 48.3451C314.489 46.6608 313.933 45.2646 313.576 44.2784C312.675 45.0264 309.759 47.4143 306.699 47.2868C301.925 47.0819 300.578 43.2867 300.339 39.281C300.089 35.1092 300.378 26.5382 300.378 26.5382C304.579 26.5382 313.877 26.6214 315.708 26.7599C315.563 25.5188 315.563 23.7958 315.563 22.3608C315.563 20.9259 315.563 19.2028 315.708 17.9618C313.882 18.1003 304.579 18.1834 300.378 18.1834C300.378 13.042 300.545 9.29669 300.545 8.05011C299.076 8.05011 297.284 8.12213 295.81 8.12213C294.335 8.12213 292.649 8.05011 291.074 8.05011C291.074 9.29669 291.241 13.042 291.241 18.1834C289.845 18.1834 285.555 18.056 284.954 17.9618C285.065 19.2028 285.098 20.9259 285.098 22.3608C285.098 23.7958 285.059 25.5188 284.954 26.7599C285.555 26.6657 289.845 26.5382 291.241 26.5382C291.241 26.5382 291.23 35.1202 291.241 39.6689C291.252 44.8823 292.549 48.4946 295.387 51.4089C298.124 54.2234 301.502 55.7525 306.693 55.7525C311.406 55.7525 316.097 53.4422 317.994 52.0515C317.355 51.2814 316.514 50.2454 315.44 48.3506L315.446 48.3451Z" fill="black"/>
<path d="M36.5686 1.93912C44.5979 1.93912 51.0692 4.34363 55.8044 9.08617C60.6676 13.9561 63.5666 21.142 64.418 30.4442C67.3448 62.0186 69.2033 74.706 70.7112 82.2963C67.1389 81.7755 64.9633 80.1411 62.8488 78.5455C60.5229 76.7948 58.1247 74.9886 54.3744 74.9886C49.973 74.9886 47.2632 77.2712 44.865 79.2824C42.4501 81.3101 40.3635 83.0664 36.5742 83.0664C32.7849 83.0664 30.6983 81.3157 28.2834 79.2824C25.8907 77.2712 23.1753 74.9886 18.774 74.9886C15.0236 74.9886 12.6198 76.7948 10.2995 78.5455C8.18509 80.1411 6.00388 81.7755 2.43717 82.2963C3.94509 74.706 5.80357 62.0186 8.73039 30.4442C9.5873 21.142 12.4807 13.9561 17.3439 9.08617C22.068 4.34363 28.5393 1.93912 36.5686 1.93912ZM36.5686 0C19.4973 0 8.59685 10.4879 6.78289 30.2614C3.75591 62.9383 1.81396 76.08 0 84.3961C10.4164 84.3961 11.8687 76.9222 18.7684 76.9222C26.3971 76.9222 27.8493 85 36.5686 85C45.2879 85 46.7402 76.9222 54.3688 76.9222C61.2686 76.9222 62.7264 84.3961 73.1372 84.3961C71.3233 76.0745 69.3813 62.9328 66.3543 30.2614C64.5404 10.4879 53.6399 0 36.5686 0Z" fill="black"/>
<path d="M19.6142 29.8015C19.6142 33.7795 22.0347 36.4333 25.6682 36.4333C29.3017 36.4333 31.7221 33.7795 31.7221 29.8015C31.7221 25.8236 29.3017 23.1697 25.6682 23.1697C22.0347 23.1697 19.6142 25.8236 19.6142 29.8015Z" fill="black"/>
<path d="M29.3016 43.0651C30.2698 46.3228 32.451 48.4891 36.5686 48.4891C40.6862 48.4891 42.8674 46.3173 43.8356 43.0651C41.7768 44.0291 39.4787 44.5112 36.5686 44.5112C34.0257 44.5112 31.2436 43.9073 29.3016 43.0651Z" fill="black"/>
<path d="M41.4151 29.8015C41.4151 33.7795 43.8356 36.4333 47.4691 36.4333C51.1026 36.4333 53.523 33.7795 53.523 29.8015C53.523 25.8236 51.1026 23.1697 47.4691 23.1697C43.8356 23.1697 41.4151 25.8236 41.4151 29.8015Z" fill="black"/>
</g>
<defs>
<clipPath id="clip0_3_391">
<rect width="318" height="85" fill="white"/>
</clipPath>
</defs>
</svg>
